<svgwidth="50px" height="50px">
	<g>
		<path d="M25,0c7.096,0.163,12.996,2.596,17.7,7.3c4.703,4.704,7.137,10.604,7.3,17.7c-0.163,7.096-2.597,12.997-7.3,17.7
			C37.996,47.404,32.096,49.837,25,50c-7.064-0.163-12.948-2.596-17.651-7.301c-4.704-4.703-7.137-10.604-7.3-17.7
			c0.163-7.096,2.596-12.996,7.3-17.7C12.052,2.596,17.936,0.163,25,0z M39.062,25.537v-0.049c-0.033-1.009-0.383-1.847-1.05-2.515
			c-0.668-0.667-1.506-1.017-2.515-1.05H13.574c-1.009,0.033-1.848,0.383-2.515,1.05c-0.667,0.667-1.001,1.506-1.001,2.515v0.049
			c0,1.009,0.333,1.848,1.001,2.514c0.667,0.668,1.505,1.002,2.515,1.002h21.924c1.009,0,1.847-0.334,2.515-1.002
			C38.68,27.385,39.029,26.546,39.062,25.537z"/>
	</g>
</svg>
